<mxfile host="app.diagrams.net" agent="Mozilla/5.0 (Windows NT 10.0; Win64; x64) AppleWebKit/537.36 (KHTML, like Gecko) Chrome/137.0.0.0 Safari/537.36 Edg/137.0.0.0" version="27.1.6" pages="7">
  <diagram id="bSsongvgESsVjoufMy5u" name="dfd level 0">
    <mxGraphModel dx="2840" dy="3120" grid="1" gridSize="10" guides="1" tooltips="1" connect="1" arrows="1" fold="1" page="1" pageScale="1" pageWidth="827" pageHeight="1169" math="0" shadow="0">
      <root>
        <mxCell id="0" />
        <mxCell id="1" parent="0" />
        <mxCell id="5Xjku7IsxRptR7GHDmnX-1" value="" style="group" parent="1" vertex="1" connectable="0">
          <mxGeometry x="230" y="-850" width="380" height="420" as="geometry" />
        </mxCell>
        <mxCell id="p86phIYACnR_FWOod3PQ-2" value="erd level 0" style="text;html=1;align=center;verticalAlign=middle;resizable=0;points=[];autosize=1;strokeColor=none;fillColor=none;" parent="5Xjku7IsxRptR7GHDmnX-1" vertex="1">
          <mxGeometry x="50" width="80" height="30" as="geometry" />
        </mxCell>
        <mxCell id="p86phIYACnR_FWOod3PQ-10" value="" style="edgeStyle=orthogonalEdgeStyle;rounded=0;orthogonalLoop=1;jettySize=auto;html=1;" parent="5Xjku7IsxRptR7GHDmnX-1" source="p86phIYACnR_FWOod3PQ-8" target="p86phIYACnR_FWOod3PQ-9" edge="1">
          <mxGeometry relative="1" as="geometry">
            <Array as="points">
              <mxPoint x="90" y="190" />
              <mxPoint x="90" y="190" />
            </Array>
          </mxGeometry>
        </mxCell>
        <mxCell id="p86phIYACnR_FWOod3PQ-12" value="" style="edgeStyle=orthogonalEdgeStyle;rounded=0;orthogonalLoop=1;jettySize=auto;html=1;" parent="5Xjku7IsxRptR7GHDmnX-1" source="p86phIYACnR_FWOod3PQ-8" target="p86phIYACnR_FWOod3PQ-11" edge="1">
          <mxGeometry relative="1" as="geometry">
            <Array as="points">
              <mxPoint x="190" y="270" />
              <mxPoint x="190" y="270" />
            </Array>
          </mxGeometry>
        </mxCell>
        <mxCell id="p86phIYACnR_FWOod3PQ-14" value="" style="edgeStyle=orthogonalEdgeStyle;rounded=0;orthogonalLoop=1;jettySize=auto;html=1;" parent="5Xjku7IsxRptR7GHDmnX-1" source="p86phIYACnR_FWOod3PQ-8" target="p86phIYACnR_FWOod3PQ-13" edge="1">
          <mxGeometry relative="1" as="geometry">
            <Array as="points">
              <mxPoint x="90" y="330" />
              <mxPoint x="90" y="330" />
            </Array>
          </mxGeometry>
        </mxCell>
        <mxCell id="p86phIYACnR_FWOod3PQ-8" value="Lelang" style="strokeWidth=2;html=1;shape=mxgraph.flowchart.start_1;whiteSpace=wrap;" parent="5Xjku7IsxRptR7GHDmnX-1" vertex="1">
          <mxGeometry x="50" y="230" width="100" height="60" as="geometry" />
        </mxCell>
        <mxCell id="p86phIYACnR_FWOod3PQ-17" value="" style="edgeStyle=orthogonalEdgeStyle;rounded=0;orthogonalLoop=1;jettySize=auto;html=1;" parent="5Xjku7IsxRptR7GHDmnX-1" source="p86phIYACnR_FWOod3PQ-9" target="p86phIYACnR_FWOod3PQ-8" edge="1">
          <mxGeometry relative="1" as="geometry">
            <Array as="points">
              <mxPoint x="110" y="190" />
              <mxPoint x="110" y="190" />
            </Array>
          </mxGeometry>
        </mxCell>
        <mxCell id="p86phIYACnR_FWOod3PQ-9" value="user" style="whiteSpace=wrap;html=1;strokeWidth=2;" parent="5Xjku7IsxRptR7GHDmnX-1" vertex="1">
          <mxGeometry x="40" y="90" width="120" height="60" as="geometry" />
        </mxCell>
        <mxCell id="p86phIYACnR_FWOod3PQ-18" value="" style="edgeStyle=orthogonalEdgeStyle;rounded=0;orthogonalLoop=1;jettySize=auto;html=1;" parent="5Xjku7IsxRptR7GHDmnX-1" source="p86phIYACnR_FWOod3PQ-11" target="p86phIYACnR_FWOod3PQ-8" edge="1">
          <mxGeometry relative="1" as="geometry" />
        </mxCell>
        <mxCell id="p86phIYACnR_FWOod3PQ-11" value="guest" style="whiteSpace=wrap;html=1;strokeWidth=2;" parent="5Xjku7IsxRptR7GHDmnX-1" vertex="1">
          <mxGeometry x="260" y="230" width="120" height="60" as="geometry" />
        </mxCell>
        <mxCell id="p86phIYACnR_FWOod3PQ-16" value="" style="edgeStyle=orthogonalEdgeStyle;rounded=0;orthogonalLoop=1;jettySize=auto;html=1;" parent="5Xjku7IsxRptR7GHDmnX-1" source="p86phIYACnR_FWOod3PQ-13" target="p86phIYACnR_FWOod3PQ-8" edge="1">
          <mxGeometry relative="1" as="geometry">
            <Array as="points">
              <mxPoint x="110" y="320" />
              <mxPoint x="110" y="320" />
            </Array>
          </mxGeometry>
        </mxCell>
        <mxCell id="p86phIYACnR_FWOod3PQ-13" value="" style="strokeWidth=2;html=1;shape=mxgraph.flowchart.database;whiteSpace=wrap;" parent="5Xjku7IsxRptR7GHDmnX-1" vertex="1">
          <mxGeometry x="70" y="360" width="60" height="60" as="geometry" />
        </mxCell>
        <mxCell id="p86phIYACnR_FWOod3PQ-19" value="register" style="text;html=1;align=center;verticalAlign=middle;resizable=0;points=[];autosize=1;strokeColor=none;fillColor=none;" parent="5Xjku7IsxRptR7GHDmnX-1" vertex="1">
          <mxGeometry x="170" y="230" width="60" height="30" as="geometry" />
        </mxCell>
        <mxCell id="p86phIYACnR_FWOod3PQ-20" value="daftar lelang" style="text;html=1;align=center;verticalAlign=middle;resizable=0;points=[];autosize=1;strokeColor=none;fillColor=none;" parent="5Xjku7IsxRptR7GHDmnX-1" vertex="1">
          <mxGeometry x="155" y="268" width="90" height="30" as="geometry" />
        </mxCell>
        <mxCell id="p86phIYACnR_FWOod3PQ-21" value="daftar lelang" style="text;html=1;align=center;verticalAlign=middle;resizable=0;points=[];autosize=1;strokeColor=none;fillColor=none;" parent="5Xjku7IsxRptR7GHDmnX-1" vertex="1">
          <mxGeometry y="180" width="90" height="30" as="geometry" />
        </mxCell>
        <mxCell id="p86phIYACnR_FWOod3PQ-22" value="membuat atau mengikuti lelang" style="text;html=1;align=center;verticalAlign=middle;resizable=0;points=[];autosize=1;strokeColor=none;fillColor=none;" parent="5Xjku7IsxRptR7GHDmnX-1" vertex="1">
          <mxGeometry x="105" y="168" width="190" height="30" as="geometry" />
        </mxCell>
        <mxCell id="p86phIYACnR_FWOod3PQ-23" value="menyimpan" style="text;html=1;align=center;verticalAlign=middle;resizable=0;points=[];autosize=1;strokeColor=none;fillColor=none;" parent="5Xjku7IsxRptR7GHDmnX-1" vertex="1">
          <mxGeometry y="310" width="90" height="30" as="geometry" />
        </mxCell>
        <mxCell id="p86phIYACnR_FWOod3PQ-24" value="menampilkan" style="text;html=1;align=center;verticalAlign=middle;resizable=0;points=[];autosize=1;strokeColor=none;fillColor=none;" parent="5Xjku7IsxRptR7GHDmnX-1" vertex="1">
          <mxGeometry x="105" y="310" width="90" height="30" as="geometry" />
        </mxCell>
      </root>
    </mxGraphModel>
  </diagram>
  <diagram id="wNXFlFTrlUlUA40G2Tnj" name="dfd-level-1">
    <mxGraphModel dx="1988" dy="1366" grid="1" gridSize="10" guides="1" tooltips="1" connect="1" arrows="1" fold="1" page="1" pageScale="1" pageWidth="827" pageHeight="1169" math="0" shadow="0">
      <root>
        <mxCell id="0" />
        <mxCell id="1" parent="0" />
        <mxCell id="dWGsvrKeLaHvJkI9dna9-20" style="edgeStyle=orthogonalEdgeStyle;rounded=0;orthogonalLoop=1;jettySize=auto;html=1;exitX=0.5;exitY=0;exitDx=0;exitDy=0;entryX=0.5;entryY=0;entryDx=0;entryDy=0;" edge="1" parent="1" source="dWGsvrKeLaHvJkI9dna9-3" target="dWGsvrKeLaHvJkI9dna9-5">
          <mxGeometry relative="1" as="geometry">
            <Array as="points">
              <mxPoint x="87" y="160" />
              <mxPoint x="637" y="160" />
            </Array>
          </mxGeometry>
        </mxCell>
        <mxCell id="dWGsvrKeLaHvJkI9dna9-21" value="data user" style="edgeLabel;html=1;align=center;verticalAlign=middle;resizable=0;points=[];" vertex="1" connectable="0" parent="dWGsvrKeLaHvJkI9dna9-20">
          <mxGeometry x="-0.167" y="-1" relative="1" as="geometry">
            <mxPoint as="offset" />
          </mxGeometry>
        </mxCell>
        <mxCell id="dWGsvrKeLaHvJkI9dna9-3" value="users" style="shape=partialRectangle;whiteSpace=wrap;html=1;left=0;right=0;fillColor=none;" vertex="1" parent="1">
          <mxGeometry x="27" y="250" width="120" height="60" as="geometry" />
        </mxCell>
        <mxCell id="dWGsvrKeLaHvJkI9dna9-5" value="users" style="whiteSpace=wrap;html=1;fillColor=none;" vertex="1" parent="1">
          <mxGeometry x="577" y="250" width="120" height="60" as="geometry" />
        </mxCell>
        <mxCell id="dWGsvrKeLaHvJkI9dna9-9" style="edgeStyle=orthogonalEdgeStyle;rounded=0;orthogonalLoop=1;jettySize=auto;html=1;exitX=0;exitY=0.5;exitDx=0;exitDy=0;exitPerimeter=0;entryX=1;entryY=0.5;entryDx=0;entryDy=0;" edge="1" parent="1" source="dWGsvrKeLaHvJkI9dna9-7" target="dWGsvrKeLaHvJkI9dna9-3">
          <mxGeometry relative="1" as="geometry" />
        </mxCell>
        <mxCell id="dWGsvrKeLaHvJkI9dna9-7" value="proses users&lt;div&gt;1.1&lt;/div&gt;" style="strokeWidth=2;html=1;shape=mxgraph.flowchart.start_2;whiteSpace=wrap;" vertex="1" parent="1">
          <mxGeometry x="297" y="230" width="100" height="100" as="geometry" />
        </mxCell>
        <mxCell id="dWGsvrKeLaHvJkI9dna9-8" style="edgeStyle=elbowEdgeStyle;rounded=0;orthogonalLoop=1;jettySize=auto;html=1;exitX=0;exitY=0.5;exitDx=0;exitDy=0;entryX=1;entryY=0.5;entryDx=0;entryDy=0;entryPerimeter=0;jumpStyle=gap;" edge="1" parent="1" source="dWGsvrKeLaHvJkI9dna9-5" target="dWGsvrKeLaHvJkI9dna9-7">
          <mxGeometry relative="1" as="geometry" />
        </mxCell>
        <mxCell id="dWGsvrKeLaHvJkI9dna9-14" value="login" style="edgeLabel;html=1;align=center;verticalAlign=middle;resizable=0;points=[];" vertex="1" connectable="0" parent="dWGsvrKeLaHvJkI9dna9-8">
          <mxGeometry x="-0.1964" y="4" relative="1" as="geometry">
            <mxPoint y="-4" as="offset" />
          </mxGeometry>
        </mxCell>
        <mxCell id="dWGsvrKeLaHvJkI9dna9-22" style="edgeStyle=orthogonalEdgeStyle;rounded=0;orthogonalLoop=1;jettySize=auto;html=1;exitX=0;exitY=0.5;exitDx=0;exitDy=0;entryX=0.5;entryY=1;entryDx=0;entryDy=0;" edge="1" parent="1" source="dWGsvrKeLaHvJkI9dna9-10" target="dWGsvrKeLaHvJkI9dna9-5">
          <mxGeometry relative="1" as="geometry">
            <Array as="points">
              <mxPoint x="7" y="390" />
              <mxPoint x="7" y="610" />
              <mxPoint x="637" y="610" />
            </Array>
          </mxGeometry>
        </mxCell>
        <mxCell id="dWGsvrKeLaHvJkI9dna9-23" value="list auctions" style="edgeLabel;html=1;align=center;verticalAlign=middle;resizable=0;points=[];" vertex="1" connectable="0" parent="dWGsvrKeLaHvJkI9dna9-22">
          <mxGeometry x="-0.1392" y="-1" relative="1" as="geometry">
            <mxPoint as="offset" />
          </mxGeometry>
        </mxCell>
        <mxCell id="dWGsvrKeLaHvJkI9dna9-34" style="edgeStyle=orthogonalEdgeStyle;rounded=0;orthogonalLoop=1;jettySize=auto;html=1;exitX=0;exitY=0.5;exitDx=0;exitDy=0;entryX=0.5;entryY=1;entryDx=0;entryDy=0;" edge="1" parent="1" source="dWGsvrKeLaHvJkI9dna9-10" target="dWGsvrKeLaHvJkI9dna9-30">
          <mxGeometry relative="1" as="geometry">
            <Array as="points">
              <mxPoint x="7" y="390" />
              <mxPoint x="7" y="670" />
              <mxPoint x="767" y="670" />
            </Array>
          </mxGeometry>
        </mxCell>
        <mxCell id="dWGsvrKeLaHvJkI9dna9-35" value="list auctions tanpa fitur menambah bid" style="edgeLabel;html=1;align=center;verticalAlign=middle;resizable=0;points=[];" vertex="1" connectable="0" parent="dWGsvrKeLaHvJkI9dna9-34">
          <mxGeometry x="-0.0714" y="-4" relative="1" as="geometry">
            <mxPoint y="-4" as="offset" />
          </mxGeometry>
        </mxCell>
        <mxCell id="dWGsvrKeLaHvJkI9dna9-10" value="auctions" style="shape=partialRectangle;whiteSpace=wrap;html=1;left=0;right=0;fillColor=none;" vertex="1" parent="1">
          <mxGeometry x="27" y="360" width="120" height="60" as="geometry" />
        </mxCell>
        <mxCell id="dWGsvrKeLaHvJkI9dna9-26" style="edgeStyle=orthogonalEdgeStyle;rounded=0;orthogonalLoop=1;jettySize=auto;html=1;exitX=0.5;exitY=1;exitDx=0;exitDy=0;entryX=0.5;entryY=1;entryDx=0;entryDy=0;" edge="1" parent="1" source="dWGsvrKeLaHvJkI9dna9-11" target="dWGsvrKeLaHvJkI9dna9-5">
          <mxGeometry relative="1" as="geometry">
            <Array as="points">
              <mxPoint x="87" y="590" />
              <mxPoint x="637" y="590" />
            </Array>
          </mxGeometry>
        </mxCell>
        <mxCell id="dWGsvrKeLaHvJkI9dna9-27" value="history bid" style="edgeLabel;html=1;align=center;verticalAlign=middle;resizable=0;points=[];" vertex="1" connectable="0" parent="dWGsvrKeLaHvJkI9dna9-26">
          <mxGeometry x="-0.3409" y="-4" relative="1" as="geometry">
            <mxPoint x="4" y="-4" as="offset" />
          </mxGeometry>
        </mxCell>
        <mxCell id="dWGsvrKeLaHvJkI9dna9-36" style="edgeStyle=orthogonalEdgeStyle;rounded=0;orthogonalLoop=1;jettySize=auto;html=1;exitX=0.5;exitY=1;exitDx=0;exitDy=0;entryX=0.5;entryY=1;entryDx=0;entryDy=0;" edge="1" parent="1" source="dWGsvrKeLaHvJkI9dna9-11" target="dWGsvrKeLaHvJkI9dna9-30">
          <mxGeometry relative="1" as="geometry">
            <Array as="points">
              <mxPoint x="87" y="650" />
              <mxPoint x="767" y="650" />
            </Array>
          </mxGeometry>
        </mxCell>
        <mxCell id="dWGsvrKeLaHvJkI9dna9-37" value="histry bid" style="edgeLabel;html=1;align=center;verticalAlign=middle;resizable=0;points=[];" vertex="1" connectable="0" parent="dWGsvrKeLaHvJkI9dna9-36">
          <mxGeometry x="-0.2625" y="3" relative="1" as="geometry">
            <mxPoint as="offset" />
          </mxGeometry>
        </mxCell>
        <mxCell id="dWGsvrKeLaHvJkI9dna9-11" value="bids" style="shape=partialRectangle;whiteSpace=wrap;html=1;left=0;right=0;fillColor=none;" vertex="1" parent="1">
          <mxGeometry x="27" y="470" width="120" height="60" as="geometry" />
        </mxCell>
        <mxCell id="dWGsvrKeLaHvJkI9dna9-18" style="edgeStyle=orthogonalEdgeStyle;rounded=0;orthogonalLoop=1;jettySize=auto;html=1;exitX=0;exitY=0.5;exitDx=0;exitDy=0;exitPerimeter=0;entryX=1;entryY=0.5;entryDx=0;entryDy=0;" edge="1" parent="1" source="dWGsvrKeLaHvJkI9dna9-12" target="dWGsvrKeLaHvJkI9dna9-10">
          <mxGeometry relative="1" as="geometry" />
        </mxCell>
        <mxCell id="dWGsvrKeLaHvJkI9dna9-12" value="proses auctions&lt;div&gt;1.2&lt;/div&gt;" style="strokeWidth=2;html=1;shape=mxgraph.flowchart.start_2;whiteSpace=wrap;" vertex="1" parent="1">
          <mxGeometry x="297" y="340" width="100" height="100" as="geometry" />
        </mxCell>
        <mxCell id="dWGsvrKeLaHvJkI9dna9-19" style="edgeStyle=orthogonalEdgeStyle;rounded=0;orthogonalLoop=1;jettySize=auto;html=1;exitX=0;exitY=0.5;exitDx=0;exitDy=0;exitPerimeter=0;" edge="1" parent="1" source="dWGsvrKeLaHvJkI9dna9-13" target="dWGsvrKeLaHvJkI9dna9-11">
          <mxGeometry relative="1" as="geometry" />
        </mxCell>
        <mxCell id="dWGsvrKeLaHvJkI9dna9-13" value="proses bids&lt;div&gt;1.3&lt;/div&gt;" style="strokeWidth=2;html=1;shape=mxgraph.flowchart.start_2;whiteSpace=wrap;" vertex="1" parent="1">
          <mxGeometry x="297" y="450" width="100" height="100" as="geometry" />
        </mxCell>
        <mxCell id="dWGsvrKeLaHvJkI9dna9-16" style="edgeStyle=orthogonalEdgeStyle;rounded=0;orthogonalLoop=1;jettySize=auto;html=1;exitX=0.5;exitY=1;exitDx=0;exitDy=0;" edge="1" parent="1" source="dWGsvrKeLaHvJkI9dna9-5">
          <mxGeometry relative="1" as="geometry">
            <mxPoint x="407" y="390" as="targetPoint" />
            <Array as="points">
              <mxPoint x="637" y="390" />
            </Array>
          </mxGeometry>
        </mxCell>
        <mxCell id="dWGsvrKeLaHvJkI9dna9-17" value="membuat dan mengikuti lelang" style="edgeLabel;html=1;align=center;verticalAlign=middle;resizable=0;points=[];" vertex="1" connectable="0" parent="dWGsvrKeLaHvJkI9dna9-16">
          <mxGeometry x="0.2321" y="-2" relative="1" as="geometry">
            <mxPoint as="offset" />
          </mxGeometry>
        </mxCell>
        <mxCell id="dWGsvrKeLaHvJkI9dna9-24" style="edgeStyle=orthogonalEdgeStyle;rounded=0;orthogonalLoop=1;jettySize=auto;html=1;exitX=0.5;exitY=1;exitDx=0;exitDy=0;entryX=1;entryY=0.5;entryDx=0;entryDy=0;entryPerimeter=0;" edge="1" parent="1" source="dWGsvrKeLaHvJkI9dna9-5" target="dWGsvrKeLaHvJkI9dna9-13">
          <mxGeometry relative="1" as="geometry" />
        </mxCell>
        <mxCell id="dWGsvrKeLaHvJkI9dna9-25" value="menambah bid" style="edgeLabel;html=1;align=center;verticalAlign=middle;resizable=0;points=[];" vertex="1" connectable="0" parent="dWGsvrKeLaHvJkI9dna9-24">
          <mxGeometry x="0.5282" y="2" relative="1" as="geometry">
            <mxPoint as="offset" />
          </mxGeometry>
        </mxCell>
        <mxCell id="dWGsvrKeLaHvJkI9dna9-30" value="guests" style="whiteSpace=wrap;html=1;fillColor=none;" vertex="1" parent="1">
          <mxGeometry x="707" y="330" width="120" height="50" as="geometry" />
        </mxCell>
        <mxCell id="dWGsvrKeLaHvJkI9dna9-32" style="edgeStyle=orthogonalEdgeStyle;rounded=0;orthogonalLoop=1;jettySize=auto;html=1;exitX=0;exitY=0.5;exitDx=0;exitDy=0;entryX=0.855;entryY=0.145;entryDx=0;entryDy=0;entryPerimeter=0;" edge="1" parent="1" source="dWGsvrKeLaHvJkI9dna9-30" target="dWGsvrKeLaHvJkI9dna9-12">
          <mxGeometry relative="1" as="geometry" />
        </mxCell>
        <mxCell id="dWGsvrKeLaHvJkI9dna9-33" value="melihat list lelang" style="edgeLabel;html=1;align=center;verticalAlign=middle;resizable=0;points=[];" vertex="1" connectable="0" parent="dWGsvrKeLaHvJkI9dna9-32">
          <mxGeometry x="0.1391" relative="1" as="geometry">
            <mxPoint as="offset" />
          </mxGeometry>
        </mxCell>
      </root>
    </mxGraphModel>
  </diagram>
  <diagram id="S_Ybb06xTgLoKYIywdA_" name="dfd-level-2">
    <mxGraphModel dx="1988" dy="1366" grid="1" gridSize="10" guides="1" tooltips="1" connect="1" arrows="1" fold="1" page="1" pageScale="1" pageWidth="827" pageHeight="1169" math="0" shadow="0">
      <root>
        <mxCell id="0" />
        <mxCell id="1" parent="0" />
        <mxCell id="j7KjJLq3p7JNsM8SrmR5-1" value="" style="group" vertex="1" connectable="0" parent="1">
          <mxGeometry x="70" y="230" width="720" height="560" as="geometry" />
        </mxCell>
        <mxCell id="j7KjJLq3p7JNsM8SrmR5-2" style="edgeStyle=orthogonalEdgeStyle;rounded=0;orthogonalLoop=1;jettySize=auto;html=1;exitX=0.5;exitY=0;exitDx=0;exitDy=0;" edge="1" parent="j7KjJLq3p7JNsM8SrmR5-1" source="j7KjJLq3p7JNsM8SrmR5-4" target="j7KjJLq3p7JNsM8SrmR5-7">
          <mxGeometry relative="1" as="geometry">
            <Array as="points">
              <mxPoint x="660" y="190" />
            </Array>
          </mxGeometry>
        </mxCell>
        <mxCell id="j7KjJLq3p7JNsM8SrmR5-3" value="menutup&lt;div&gt;item lelang&lt;/div&gt;&lt;div&gt;yang dimiliki&lt;/div&gt;&lt;div&gt;sendiri&lt;/div&gt;" style="edgeLabel;html=1;align=center;verticalAlign=middle;resizable=0;points=[];" vertex="1" connectable="0" parent="j7KjJLq3p7JNsM8SrmR5-2">
          <mxGeometry x="0.4689" y="1" relative="1" as="geometry">
            <mxPoint x="-94" y="-1" as="offset" />
          </mxGeometry>
        </mxCell>
        <mxCell id="j7KjJLq3p7JNsM8SrmR5-4" value="users" style="whiteSpace=wrap;html=1;fillColor=none;" vertex="1" parent="j7KjJLq3p7JNsM8SrmR5-1">
          <mxGeometry x="600" y="430" width="120" height="60" as="geometry" />
        </mxCell>
        <mxCell id="j7KjJLq3p7JNsM8SrmR5-5" style="edgeStyle=orthogonalEdgeStyle;rounded=0;orthogonalLoop=1;jettySize=auto;html=1;exitX=0;exitY=0.5;exitDx=0;exitDy=0;exitPerimeter=0;" edge="1" parent="j7KjJLq3p7JNsM8SrmR5-1" source="j7KjJLq3p7JNsM8SrmR5-7" target="j7KjJLq3p7JNsM8SrmR5-12">
          <mxGeometry relative="1" as="geometry" />
        </mxCell>
        <mxCell id="j7KjJLq3p7JNsM8SrmR5-6" value="menutup lelang&lt;div&gt;lalu mencatat&amp;nbsp;&lt;/div&gt;&lt;div&gt;pemenang&lt;/div&gt;&lt;div&gt;dari bid tertinggi&lt;/div&gt;" style="edgeLabel;html=1;align=center;verticalAlign=middle;resizable=0;points=[];" vertex="1" connectable="0" parent="j7KjJLq3p7JNsM8SrmR5-5">
          <mxGeometry x="-0.0781" relative="1" as="geometry">
            <mxPoint x="-1" as="offset" />
          </mxGeometry>
        </mxCell>
        <mxCell id="j7KjJLq3p7JNsM8SrmR5-7" value="tutup paksa auctions&lt;div&gt;1.2.2&lt;/div&gt;" style="strokeWidth=2;html=1;shape=mxgraph.flowchart.start_2;whiteSpace=wrap;" vertex="1" parent="j7KjJLq3p7JNsM8SrmR5-1">
          <mxGeometry x="290" y="140" width="100" height="100" as="geometry" />
        </mxCell>
        <mxCell id="j7KjJLq3p7JNsM8SrmR5-8" style="edgeStyle=orthogonalEdgeStyle;rounded=0;orthogonalLoop=1;jettySize=auto;html=1;exitX=0;exitY=0.5;exitDx=0;exitDy=0;entryX=0.75;entryY=0;entryDx=0;entryDy=0;" edge="1" parent="j7KjJLq3p7JNsM8SrmR5-1" source="j7KjJLq3p7JNsM8SrmR5-12" target="j7KjJLq3p7JNsM8SrmR5-4">
          <mxGeometry relative="1" as="geometry">
            <Array as="points">
              <mxPoint y="190" />
              <mxPoint />
              <mxPoint x="690" />
            </Array>
          </mxGeometry>
        </mxCell>
        <mxCell id="j7KjJLq3p7JNsM8SrmR5-9" value="id user tercatat di pemenang auctions" style="edgeLabel;html=1;align=center;verticalAlign=middle;resizable=0;points=[];" vertex="1" connectable="0" parent="j7KjJLq3p7JNsM8SrmR5-8">
          <mxGeometry x="-0.1274" y="1" relative="1" as="geometry">
            <mxPoint as="offset" />
          </mxGeometry>
        </mxCell>
        <mxCell id="j7KjJLq3p7JNsM8SrmR5-10" style="edgeStyle=orthogonalEdgeStyle;rounded=0;orthogonalLoop=1;jettySize=auto;html=1;exitX=0;exitY=0.5;exitDx=0;exitDy=0;entryX=0.5;entryY=1;entryDx=0;entryDy=0;" edge="1" parent="j7KjJLq3p7JNsM8SrmR5-1" source="j7KjJLq3p7JNsM8SrmR5-12" target="j7KjJLq3p7JNsM8SrmR5-4">
          <mxGeometry relative="1" as="geometry">
            <Array as="points">
              <mxPoint y="190" />
              <mxPoint y="560" />
              <mxPoint x="660" y="560" />
            </Array>
          </mxGeometry>
        </mxCell>
        <mxCell id="j7KjJLq3p7JNsM8SrmR5-11" value="id user tercatat di pemilik item auctions" style="edgeLabel;html=1;align=center;verticalAlign=middle;resizable=0;points=[];" vertex="1" connectable="0" parent="j7KjJLq3p7JNsM8SrmR5-10">
          <mxGeometry x="0.327" relative="1" as="geometry">
            <mxPoint as="offset" />
          </mxGeometry>
        </mxCell>
        <mxCell id="j7KjJLq3p7JNsM8SrmR5-12" value="auctions" style="shape=partialRectangle;whiteSpace=wrap;html=1;left=0;right=0;fillColor=none;" vertex="1" parent="j7KjJLq3p7JNsM8SrmR5-1">
          <mxGeometry x="20" y="160" width="120" height="60" as="geometry" />
        </mxCell>
        <mxCell id="j7KjJLq3p7JNsM8SrmR5-13" style="edgeStyle=orthogonalEdgeStyle;rounded=0;orthogonalLoop=1;jettySize=auto;html=1;exitX=0;exitY=0.5;exitDx=0;exitDy=0;exitPerimeter=0;entryX=0.5;entryY=0;entryDx=0;entryDy=0;" edge="1" parent="j7KjJLq3p7JNsM8SrmR5-1" source="j7KjJLq3p7JNsM8SrmR5-15" target="j7KjJLq3p7JNsM8SrmR5-12">
          <mxGeometry relative="1" as="geometry" />
        </mxCell>
        <mxCell id="j7KjJLq3p7JNsM8SrmR5-14" value="menambah item lelang" style="edgeLabel;html=1;align=center;verticalAlign=middle;resizable=0;points=[];" vertex="1" connectable="0" parent="j7KjJLq3p7JNsM8SrmR5-13">
          <mxGeometry x="-0.3163" relative="1" as="geometry">
            <mxPoint x="-1" as="offset" />
          </mxGeometry>
        </mxCell>
        <mxCell id="j7KjJLq3p7JNsM8SrmR5-15" value="tambah auctions&lt;div&gt;1.2.1&lt;/div&gt;" style="strokeWidth=2;html=1;shape=mxgraph.flowchart.start_2;whiteSpace=wrap;" vertex="1" parent="j7KjJLq3p7JNsM8SrmR5-1">
          <mxGeometry x="290" y="30" width="100" height="100" as="geometry" />
        </mxCell>
        <mxCell id="j7KjJLq3p7JNsM8SrmR5-16" style="edgeStyle=orthogonalEdgeStyle;rounded=0;orthogonalLoop=1;jettySize=auto;html=1;exitX=0;exitY=0.5;exitDx=0;exitDy=0;exitPerimeter=0;entryX=0.5;entryY=1;entryDx=0;entryDy=0;" edge="1" parent="j7KjJLq3p7JNsM8SrmR5-1" source="j7KjJLq3p7JNsM8SrmR5-18" target="j7KjJLq3p7JNsM8SrmR5-12">
          <mxGeometry relative="1" as="geometry" />
        </mxCell>
        <mxCell id="j7KjJLq3p7JNsM8SrmR5-17" value="mencatat id user&lt;div&gt;pemilik bid tertinggi&lt;/div&gt;" style="edgeLabel;html=1;align=center;verticalAlign=middle;resizable=0;points=[];" vertex="1" connectable="0" parent="j7KjJLq3p7JNsM8SrmR5-16">
          <mxGeometry x="-0.2994" relative="1" as="geometry">
            <mxPoint x="-1" as="offset" />
          </mxGeometry>
        </mxCell>
        <mxCell id="j7KjJLq3p7JNsM8SrmR5-18" value="tutup auctions setelah waktu tenggat&lt;div&gt;1.2.3&lt;/div&gt;" style="strokeWidth=2;html=1;shape=mxgraph.flowchart.start_2;whiteSpace=wrap;" vertex="1" parent="j7KjJLq3p7JNsM8SrmR5-1">
          <mxGeometry x="290" y="250" width="100" height="100" as="geometry" />
        </mxCell>
        <mxCell id="j7KjJLq3p7JNsM8SrmR5-19" style="edgeStyle=orthogonalEdgeStyle;rounded=0;orthogonalLoop=1;jettySize=auto;html=1;exitX=0.5;exitY=0;exitDx=0;exitDy=0;entryX=1;entryY=0.5;entryDx=0;entryDy=0;entryPerimeter=0;" edge="1" parent="j7KjJLq3p7JNsM8SrmR5-1" source="j7KjJLq3p7JNsM8SrmR5-4" target="j7KjJLq3p7JNsM8SrmR5-15">
          <mxGeometry relative="1" as="geometry">
            <Array as="points">
              <mxPoint x="660" y="80" />
            </Array>
          </mxGeometry>
        </mxCell>
        <mxCell id="j7KjJLq3p7JNsM8SrmR5-20" value="menambah&lt;div&gt;item&lt;/div&gt;&lt;div&gt;lelang&lt;/div&gt;" style="edgeLabel;html=1;align=center;verticalAlign=middle;resizable=0;points=[];" vertex="1" connectable="0" parent="j7KjJLq3p7JNsM8SrmR5-19">
          <mxGeometry x="0.698" y="1" relative="1" as="geometry">
            <mxPoint x="-1" as="offset" />
          </mxGeometry>
        </mxCell>
        <mxCell id="j7KjJLq3p7JNsM8SrmR5-21" style="edgeStyle=orthogonalEdgeStyle;rounded=0;orthogonalLoop=1;jettySize=auto;html=1;exitX=0.5;exitY=0;exitDx=0;exitDy=0;entryX=1;entryY=0.5;entryDx=0;entryDy=0;entryPerimeter=0;" edge="1" parent="j7KjJLq3p7JNsM8SrmR5-1" source="j7KjJLq3p7JNsM8SrmR5-4" target="j7KjJLq3p7JNsM8SrmR5-18">
          <mxGeometry relative="1" as="geometry">
            <Array as="points">
              <mxPoint x="660" y="360" />
              <mxPoint x="660" y="300" />
            </Array>
          </mxGeometry>
        </mxCell>
        <mxCell id="j7KjJLq3p7JNsM8SrmR5-22" value="waktu tenggat&lt;div&gt;terlewati&lt;/div&gt;" style="edgeLabel;html=1;align=center;verticalAlign=middle;resizable=0;points=[];" vertex="1" connectable="0" parent="j7KjJLq3p7JNsM8SrmR5-21">
          <mxGeometry x="0.6469" y="1" relative="1" as="geometry">
            <mxPoint x="-1" as="offset" />
          </mxGeometry>
        </mxCell>
        <mxCell id="j7KjJLq3p7JNsM8SrmR5-23" style="edgeStyle=orthogonalEdgeStyle;rounded=0;orthogonalLoop=1;jettySize=auto;html=1;exitX=0;exitY=0.5;exitDx=0;exitDy=0;exitPerimeter=0;entryX=1;entryY=0.5;entryDx=0;entryDy=0;" edge="1" parent="j7KjJLq3p7JNsM8SrmR5-1" source="j7KjJLq3p7JNsM8SrmR5-24" target="j7KjJLq3p7JNsM8SrmR5-28">
          <mxGeometry relative="1" as="geometry" />
        </mxCell>
        <mxCell id="j7KjJLq3p7JNsM8SrmR5-24" value="menambah bid&lt;div&gt;1.3.1&lt;/div&gt;" style="strokeWidth=2;html=1;shape=mxgraph.flowchart.start_2;whiteSpace=wrap;" vertex="1" parent="j7KjJLq3p7JNsM8SrmR5-1">
          <mxGeometry x="290" y="410" width="100" height="100" as="geometry" />
        </mxCell>
        <mxCell id="j7KjJLq3p7JNsM8SrmR5-25" style="edgeStyle=orthogonalEdgeStyle;rounded=0;orthogonalLoop=1;jettySize=auto;html=1;entryX=1;entryY=0.5;entryDx=0;entryDy=0;entryPerimeter=0;" edge="1" parent="j7KjJLq3p7JNsM8SrmR5-1" source="j7KjJLq3p7JNsM8SrmR5-4" target="j7KjJLq3p7JNsM8SrmR5-24">
          <mxGeometry relative="1" as="geometry" />
        </mxCell>
        <mxCell id="j7KjJLq3p7JNsM8SrmR5-26" style="edgeStyle=orthogonalEdgeStyle;rounded=0;orthogonalLoop=1;jettySize=auto;html=1;exitX=0.25;exitY=0;exitDx=0;exitDy=0;entryX=0.25;entryY=1;entryDx=0;entryDy=0;" edge="1" parent="j7KjJLq3p7JNsM8SrmR5-1" source="j7KjJLq3p7JNsM8SrmR5-28" target="j7KjJLq3p7JNsM8SrmR5-12">
          <mxGeometry relative="1" as="geometry" />
        </mxCell>
        <mxCell id="j7KjJLq3p7JNsM8SrmR5-27" value="bid tertinggi" style="edgeLabel;html=1;align=center;verticalAlign=middle;resizable=0;points=[];" vertex="1" connectable="0" parent="j7KjJLq3p7JNsM8SrmR5-26">
          <mxGeometry x="-0.3401" y="1" relative="1" as="geometry">
            <mxPoint as="offset" />
          </mxGeometry>
        </mxCell>
        <mxCell id="j7KjJLq3p7JNsM8SrmR5-28" value="bids" style="shape=partialRectangle;whiteSpace=wrap;html=1;left=0;right=0;fillColor=none;" vertex="1" parent="j7KjJLq3p7JNsM8SrmR5-1">
          <mxGeometry x="20" y="430" width="120" height="60" as="geometry" />
        </mxCell>
      </root>
    </mxGraphModel>
  </diagram>
  <diagram id="7_EwiF3LFPFTFoXQXFj5" name="erd">
    <mxGraphModel dx="-1368" dy="1918" grid="1" gridSize="10" guides="1" tooltips="1" connect="1" arrows="1" fold="1" page="1" pageScale="1" pageWidth="827" pageHeight="1169" math="0" shadow="0">
      <root>
        <mxCell id="0" />
        <mxCell id="1" parent="0" />
        <mxCell id="VucIn9OToeMLbng5eBUD-1" value="ERD" style="text;html=1;align=center;verticalAlign=middle;resizable=0;points=[];autosize=1;strokeColor=none;fillColor=none;" vertex="1" parent="1">
          <mxGeometry x="2985" y="-990" width="50" height="30" as="geometry" />
        </mxCell>
        <mxCell id="VucIn9OToeMLbng5eBUD-2" value="id" style="ellipse;whiteSpace=wrap;html=1;" vertex="1" parent="1">
          <mxGeometry x="2535" y="-877.5" width="60" height="40" as="geometry" />
        </mxCell>
        <mxCell id="VucIn9OToeMLbng5eBUD-3" value="" style="edgeStyle=entityRelationEdgeStyle;rounded=0;orthogonalLoop=1;jettySize=auto;html=1;strokeWidth=1;strokeColor=default;endArrow=none;startFill=0;entryX=0.5;entryY=1;entryDx=0;entryDy=0;" edge="1" parent="1" source="VucIn9OToeMLbng5eBUD-7" target="VucIn9OToeMLbng5eBUD-2">
          <mxGeometry relative="1" as="geometry" />
        </mxCell>
        <mxCell id="VucIn9OToeMLbng5eBUD-4" value="" style="edgeStyle=entityRelationEdgeStyle;shape=connector;rounded=0;orthogonalLoop=1;jettySize=auto;html=1;strokeColor=default;strokeWidth=1;align=center;verticalAlign=middle;fontFamily=Helvetica;fontSize=11;fontColor=default;labelBackgroundColor=default;startFill=0;endArrow=none;entryX=0.5;entryY=1;entryDx=0;entryDy=0;" edge="1" parent="1" source="VucIn9OToeMLbng5eBUD-7" target="VucIn9OToeMLbng5eBUD-11">
          <mxGeometry relative="1" as="geometry" />
        </mxCell>
        <mxCell id="VucIn9OToeMLbng5eBUD-5" value="" style="edgeStyle=entityRelationEdgeStyle;shape=connector;rounded=0;orthogonalLoop=1;jettySize=auto;html=1;strokeColor=default;strokeWidth=1;align=center;verticalAlign=middle;fontFamily=Helvetica;fontSize=11;fontColor=default;labelBackgroundColor=default;startFill=0;endArrow=none;entryX=0.5;entryY=1;entryDx=0;entryDy=0;" edge="1" parent="1" source="VucIn9OToeMLbng5eBUD-7" target="VucIn9OToeMLbng5eBUD-18">
          <mxGeometry relative="1" as="geometry" />
        </mxCell>
        <mxCell id="VucIn9OToeMLbng5eBUD-6" value="" style="edgeStyle=entityRelationEdgeStyle;shape=connector;rounded=0;orthogonalLoop=1;jettySize=auto;html=1;strokeColor=default;strokeWidth=1;align=center;verticalAlign=middle;fontFamily=Helvetica;fontSize=11;fontColor=default;labelBackgroundColor=default;startFill=0;endArrow=none;entryX=0.5;entryY=1;entryDx=0;entryDy=0;" edge="1" parent="1" source="VucIn9OToeMLbng5eBUD-7" target="VucIn9OToeMLbng5eBUD-19">
          <mxGeometry relative="1" as="geometry" />
        </mxCell>
        <mxCell id="VucIn9OToeMLbng5eBUD-7" value="user" style="rounded=0;whiteSpace=wrap;html=1;" vertex="1" parent="1">
          <mxGeometry x="2715" y="-695.5" width="60" height="30" as="geometry" />
        </mxCell>
        <mxCell id="VucIn9OToeMLbng5eBUD-8" value="" style="shape=connector;rounded=0;orthogonalLoop=1;jettySize=auto;html=1;strokeColor=default;strokeWidth=1;align=center;verticalAlign=middle;fontFamily=Helvetica;fontSize=11;fontColor=default;labelBackgroundColor=default;startFill=0;endArrow=none;edgeStyle=elbowEdgeStyle;elbow=vertical;" edge="1" parent="1" source="VucIn9OToeMLbng5eBUD-10" target="VucIn9OToeMLbng5eBUD-7">
          <mxGeometry relative="1" as="geometry" />
        </mxCell>
        <mxCell id="VucIn9OToeMLbng5eBUD-9" value="" style="shape=connector;rounded=0;orthogonalLoop=1;jettySize=auto;html=1;strokeColor=default;strokeWidth=1;align=center;verticalAlign=middle;fontFamily=Helvetica;fontSize=11;fontColor=default;labelBackgroundColor=default;startFill=0;endArrow=none;edgeStyle=elbowEdgeStyle;elbow=vertical;exitX=0.5;exitY=1;exitDx=0;exitDy=0;jumpStyle=gap;" edge="1" parent="1" source="VucIn9OToeMLbng5eBUD-10" target="VucIn9OToeMLbng5eBUD-32">
          <mxGeometry relative="1" as="geometry" />
        </mxCell>
        <mxCell id="VucIn9OToeMLbng5eBUD-10" value="MENDATA" style="rhombus;whiteSpace=wrap;html=1;" vertex="1" parent="1">
          <mxGeometry x="2715" y="-605.5" width="60" height="60" as="geometry" />
        </mxCell>
        <mxCell id="VucIn9OToeMLbng5eBUD-11" value="nama" style="ellipse;whiteSpace=wrap;html=1;" vertex="1" parent="1">
          <mxGeometry x="2595" y="-917.5" width="60" height="40" as="geometry" />
        </mxCell>
        <mxCell id="VucIn9OToeMLbng5eBUD-12" value="" style="edgeStyle=orthogonalEdgeStyle;shape=connector;curved=1;rounded=0;orthogonalLoop=1;jettySize=auto;html=1;strokeColor=default;strokeWidth=1;align=center;verticalAlign=middle;fontFamily=Helvetica;fontSize=11;fontColor=default;labelBackgroundColor=default;startFill=0;endArrow=none;" edge="1" parent="1" source="VucIn9OToeMLbng5eBUD-13" target="VucIn9OToeMLbng5eBUD-7">
          <mxGeometry relative="1" as="geometry" />
        </mxCell>
        <mxCell id="VucIn9OToeMLbng5eBUD-13" value="email" style="ellipse;whiteSpace=wrap;html=1;" vertex="1" parent="1">
          <mxGeometry x="2642.5" y="-950.5" width="60" height="40" as="geometry" />
        </mxCell>
        <mxCell id="VucIn9OToeMLbng5eBUD-14" value="" style="edgeStyle=orthogonalEdgeStyle;shape=connector;curved=1;rounded=0;orthogonalLoop=1;jettySize=auto;html=1;strokeColor=default;strokeWidth=1;align=center;verticalAlign=middle;fontFamily=Helvetica;fontSize=11;fontColor=default;labelBackgroundColor=default;startFill=0;endArrow=none;" edge="1" parent="1" source="VucIn9OToeMLbng5eBUD-15" target="VucIn9OToeMLbng5eBUD-7">
          <mxGeometry relative="1" as="geometry" />
        </mxCell>
        <mxCell id="VucIn9OToeMLbng5eBUD-15" value="password" style="ellipse;whiteSpace=wrap;html=1;" vertex="1" parent="1">
          <mxGeometry x="2715" y="-979.5" width="60" height="40" as="geometry" />
        </mxCell>
        <mxCell id="VucIn9OToeMLbng5eBUD-16" value="" style="edgeStyle=orthogonalEdgeStyle;shape=connector;curved=1;rounded=0;orthogonalLoop=1;jettySize=auto;html=1;strokeColor=default;strokeWidth=1;align=center;verticalAlign=middle;fontFamily=Helvetica;fontSize=11;fontColor=default;labelBackgroundColor=default;startFill=0;endArrow=none;" edge="1" parent="1" source="VucIn9OToeMLbng5eBUD-17" target="VucIn9OToeMLbng5eBUD-7">
          <mxGeometry relative="1" as="geometry" />
        </mxCell>
        <mxCell id="VucIn9OToeMLbng5eBUD-17" value="remember&lt;div&gt;token&lt;/div&gt;" style="ellipse;whiteSpace=wrap;html=1;" vertex="1" parent="1">
          <mxGeometry x="2785" y="-950.5" width="60" height="40" as="geometry" />
        </mxCell>
        <mxCell id="VucIn9OToeMLbng5eBUD-18" value="created_at" style="ellipse;whiteSpace=wrap;html=1;" vertex="1" parent="1">
          <mxGeometry x="2835" y="-917.5" width="60" height="40" as="geometry" />
        </mxCell>
        <mxCell id="VucIn9OToeMLbng5eBUD-19" value="updated_at" style="ellipse;whiteSpace=wrap;html=1;" vertex="1" parent="1">
          <mxGeometry x="2895" y="-875.5" width="60" height="40" as="geometry" />
        </mxCell>
        <mxCell id="VucIn9OToeMLbng5eBUD-20" value="" style="edgeStyle=entityRelationEdgeStyle;rounded=0;orthogonalLoop=1;jettySize=auto;html=1;strokeWidth=1;strokeColor=default;endArrow=none;startFill=0;horizontal=0;" edge="1" parent="1" source="VucIn9OToeMLbng5eBUD-27" target="VucIn9OToeMLbng5eBUD-32">
          <mxGeometry relative="1" as="geometry" />
        </mxCell>
        <mxCell id="VucIn9OToeMLbng5eBUD-21" value="" style="edgeStyle=entityRelationEdgeStyle;shape=connector;rounded=0;orthogonalLoop=1;jettySize=auto;html=1;strokeColor=default;strokeWidth=1;align=center;verticalAlign=middle;fontFamily=Helvetica;fontSize=11;fontColor=default;labelBackgroundColor=default;startFill=0;endArrow=none;horizontal=0;" edge="1" parent="1" source="VucIn9OToeMLbng5eBUD-33" target="VucIn9OToeMLbng5eBUD-32">
          <mxGeometry relative="1" as="geometry" />
        </mxCell>
        <mxCell id="VucIn9OToeMLbng5eBUD-22" value="" style="edgeStyle=entityRelationEdgeStyle;shape=connector;rounded=0;orthogonalLoop=1;jettySize=auto;html=1;strokeColor=default;strokeWidth=1;align=center;verticalAlign=middle;fontFamily=Helvetica;fontSize=11;fontColor=default;labelBackgroundColor=default;startFill=0;endArrow=none;horizontal=0;" edge="1" parent="1" source="VucIn9OToeMLbng5eBUD-34" target="VucIn9OToeMLbng5eBUD-32">
          <mxGeometry relative="1" as="geometry" />
        </mxCell>
        <mxCell id="VucIn9OToeMLbng5eBUD-23" value="" style="edgeStyle=entityRelationEdgeStyle;shape=connector;rounded=0;orthogonalLoop=1;jettySize=auto;html=1;strokeColor=default;strokeWidth=1;align=center;verticalAlign=middle;fontFamily=Helvetica;fontSize=11;fontColor=default;labelBackgroundColor=default;startFill=0;endArrow=none;horizontal=0;jumpStyle=none;" edge="1" parent="1" source="VucIn9OToeMLbng5eBUD-35" target="VucIn9OToeMLbng5eBUD-32">
          <mxGeometry relative="1" as="geometry" />
        </mxCell>
        <mxCell id="VucIn9OToeMLbng5eBUD-24" value="" style="edgeStyle=entityRelationEdgeStyle;shape=connector;rounded=0;orthogonalLoop=1;jettySize=auto;html=1;strokeColor=default;strokeWidth=1;align=center;verticalAlign=middle;fontFamily=Helvetica;fontSize=11;fontColor=default;labelBackgroundColor=default;startFill=0;endArrow=none;horizontal=0;" edge="1" parent="1" source="VucIn9OToeMLbng5eBUD-36" target="VucIn9OToeMLbng5eBUD-32">
          <mxGeometry relative="1" as="geometry" />
        </mxCell>
        <mxCell id="VucIn9OToeMLbng5eBUD-25" value="" style="edgeStyle=entityRelationEdgeStyle;shape=connector;rounded=0;orthogonalLoop=1;jettySize=auto;html=1;strokeColor=default;strokeWidth=1;align=center;verticalAlign=middle;fontFamily=Helvetica;fontSize=11;fontColor=default;labelBackgroundColor=default;startFill=0;endArrow=none;horizontal=0;" edge="1" parent="1" source="VucIn9OToeMLbng5eBUD-37" target="VucIn9OToeMLbng5eBUD-32">
          <mxGeometry relative="1" as="geometry" />
        </mxCell>
        <mxCell id="VucIn9OToeMLbng5eBUD-26" value="" style="edgeStyle=entityRelationEdgeStyle;shape=connector;rounded=0;orthogonalLoop=1;jettySize=auto;html=1;strokeColor=default;strokeWidth=1;align=center;verticalAlign=middle;fontFamily=Helvetica;fontSize=11;fontColor=default;labelBackgroundColor=default;startFill=0;endArrow=none;horizontal=0;" edge="1" parent="1" source="VucIn9OToeMLbng5eBUD-38" target="VucIn9OToeMLbng5eBUD-32">
          <mxGeometry relative="1" as="geometry" />
        </mxCell>
        <mxCell id="VucIn9OToeMLbng5eBUD-27" value="id" style="ellipse;whiteSpace=wrap;html=1;container=0;rotation=90;direction=south;horizontal=0;" vertex="1" parent="1">
          <mxGeometry x="2969.5" y="-565.5" width="40" height="60" as="geometry" />
        </mxCell>
        <mxCell id="VucIn9OToeMLbng5eBUD-28" value="" style="edgeStyle=entityRelationEdgeStyle;shape=connector;rounded=0;orthogonalLoop=1;jettySize=auto;html=1;strokeColor=default;strokeWidth=1;align=center;verticalAlign=middle;fontFamily=Helvetica;fontSize=11;fontColor=default;labelBackgroundColor=default;startFill=0;endArrow=none;entryX=0;entryY=0.5;entryDx=0;entryDy=0;exitX=1;exitY=0.5;exitDx=0;exitDy=0;" edge="1" parent="1" source="VucIn9OToeMLbng5eBUD-32" target="VucIn9OToeMLbng5eBUD-39">
          <mxGeometry relative="1" as="geometry">
            <Array as="points">
              <mxPoint x="2892.5" y="-300.5" />
              <mxPoint x="2892.5" y="-250.5" />
              <mxPoint x="2872.5" y="-250.5" />
              <mxPoint x="2880.5" y="-250.5" />
              <mxPoint x="2892.5" y="-250.5" />
              <mxPoint x="2902.5" y="-250.5" />
            </Array>
          </mxGeometry>
        </mxCell>
        <mxCell id="VucIn9OToeMLbng5eBUD-29" value="" style="edgeStyle=entityRelationEdgeStyle;shape=connector;rounded=0;orthogonalLoop=1;jettySize=auto;html=1;strokeColor=default;strokeWidth=1;align=center;verticalAlign=middle;fontFamily=Helvetica;fontSize=11;fontColor=default;labelBackgroundColor=default;startFill=0;endArrow=none;" edge="1" parent="1" source="VucIn9OToeMLbng5eBUD-32" target="VucIn9OToeMLbng5eBUD-40">
          <mxGeometry relative="1" as="geometry" />
        </mxCell>
        <mxCell id="VucIn9OToeMLbng5eBUD-30" value="" style="edgeStyle=entityRelationEdgeStyle;shape=connector;rounded=0;orthogonalLoop=1;jettySize=auto;html=1;strokeColor=default;strokeWidth=1;align=center;verticalAlign=middle;fontFamily=Helvetica;fontSize=11;fontColor=default;labelBackgroundColor=default;startFill=0;endArrow=none;" edge="1" parent="1" source="VucIn9OToeMLbng5eBUD-32" target="VucIn9OToeMLbng5eBUD-41">
          <mxGeometry relative="1" as="geometry" />
        </mxCell>
        <mxCell id="VucIn9OToeMLbng5eBUD-31" value="" style="edgeStyle=entityRelationEdgeStyle;shape=connector;rounded=0;orthogonalLoop=1;jettySize=auto;html=1;strokeColor=default;strokeWidth=1;align=center;verticalAlign=middle;fontFamily=Helvetica;fontSize=11;fontColor=default;labelBackgroundColor=default;startFill=0;endArrow=none;" edge="1" parent="1" source="VucIn9OToeMLbng5eBUD-32" target="VucIn9OToeMLbng5eBUD-42">
          <mxGeometry relative="1" as="geometry" />
        </mxCell>
        <mxCell id="VucIn9OToeMLbng5eBUD-32" value="lelang" style="rounded=0;whiteSpace=wrap;html=1;container=0;rotation=90;direction=south;horizontal=0;" vertex="1" parent="1">
          <mxGeometry x="2865" y="-383" width="30" height="55" as="geometry" />
        </mxCell>
        <mxCell id="VucIn9OToeMLbng5eBUD-33" value="user_id" style="ellipse;whiteSpace=wrap;html=1;container=0;rotation=90;direction=south;horizontal=0;" vertex="1" parent="1">
          <mxGeometry x="3009.5" y="-505.5" width="40" height="60" as="geometry" />
        </mxCell>
        <mxCell id="VucIn9OToeMLbng5eBUD-34" value="title" style="ellipse;whiteSpace=wrap;html=1;container=0;rotation=90;direction=south;horizontal=0;" vertex="1" parent="1">
          <mxGeometry x="3042.5" y="-445.5" width="40" height="60" as="geometry" />
        </mxCell>
        <mxCell id="VucIn9OToeMLbng5eBUD-35" value="deskripsi" style="ellipse;whiteSpace=wrap;html=1;container=0;rotation=90;direction=south;horizontal=0;" vertex="1" parent="1">
          <mxGeometry x="3067.5" y="-385.5" width="40" height="60" as="geometry" />
        </mxCell>
        <mxCell id="VucIn9OToeMLbng5eBUD-36" value="image_path" style="ellipse;whiteSpace=wrap;html=1;container=0;rotation=90;direction=south;horizontal=0;" vertex="1" parent="1">
          <mxGeometry x="3047" y="-320.5" width="40" height="60" as="geometry" />
        </mxCell>
        <mxCell id="VucIn9OToeMLbng5eBUD-37" value="harga_awal" style="ellipse;whiteSpace=wrap;html=1;container=0;rotation=90;direction=south;horizontal=0;" vertex="1" parent="1">
          <mxGeometry x="3014" y="-260.5" width="40" height="60" as="geometry" />
        </mxCell>
        <mxCell id="VucIn9OToeMLbng5eBUD-38" value="harga_baru" style="ellipse;whiteSpace=wrap;html=1;container=0;rotation=90;direction=south;horizontal=0;" vertex="1" parent="1">
          <mxGeometry x="2972" y="-200.5" width="40" height="60" as="geometry" />
        </mxCell>
        <mxCell id="VucIn9OToeMLbng5eBUD-39" value="end_date" style="ellipse;whiteSpace=wrap;html=1;container=0;rotation=90;direction=south;horizontal=0;" vertex="1" parent="1">
          <mxGeometry x="2622.5" y="-385.5" width="40" height="60" as="geometry" />
        </mxCell>
        <mxCell id="VucIn9OToeMLbng5eBUD-40" value="is_closed" style="ellipse;whiteSpace=wrap;html=1;container=0;rotation=90;direction=south;horizontal=0;" vertex="1" parent="1">
          <mxGeometry x="2755" y="-200.5" width="40" height="60" as="geometry" />
        </mxCell>
        <mxCell id="VucIn9OToeMLbng5eBUD-41" value="updated_at" style="ellipse;whiteSpace=wrap;html=1;container=0;rotation=90;direction=south;horizontal=0;" vertex="1" parent="1">
          <mxGeometry x="2693" y="-259.5" width="40" height="60" as="geometry" />
        </mxCell>
        <mxCell id="VucIn9OToeMLbng5eBUD-42" value="winner_id" style="ellipse;whiteSpace=wrap;html=1;container=0;rotation=90;direction=south;horizontal=0;" vertex="1" parent="1">
          <mxGeometry x="2642.5" y="-320.5" width="40" height="60" as="geometry" />
        </mxCell>
        <mxCell id="oRNreTNLkv0fS1kCO89P-1" value="" style="edgeStyle=elbowEdgeStyle;rounded=0;orthogonalLoop=1;jettySize=auto;html=1;" edge="1" parent="1" source="VucIn9OToeMLbng5eBUD-43" target="VucIn9OToeMLbng5eBUD-10">
          <mxGeometry relative="1" as="geometry" />
        </mxCell>
        <mxCell id="VucIn9OToeMLbng5eBUD-43" value="bids" style="rounded=0;whiteSpace=wrap;html=1;" vertex="1" parent="1">
          <mxGeometry x="2975" y="-745.5" width="60" height="30" as="geometry" />
        </mxCell>
        <mxCell id="VucIn9OToeMLbng5eBUD-44" value="" style="edgeStyle=entityRelationEdgeStyle;shape=connector;rounded=0;orthogonalLoop=1;jettySize=auto;html=1;strokeColor=default;strokeWidth=1;align=center;verticalAlign=middle;fontFamily=Helvetica;fontSize=11;fontColor=default;labelBackgroundColor=default;startFill=0;endArrow=none;" edge="1" parent="1" source="VucIn9OToeMLbng5eBUD-45" target="VucIn9OToeMLbng5eBUD-43">
          <mxGeometry relative="1" as="geometry" />
        </mxCell>
        <mxCell id="VucIn9OToeMLbng5eBUD-45" value="id" style="ellipse;whiteSpace=wrap;html=1;" vertex="1" parent="1">
          <mxGeometry x="3195" y="-885.5" width="60" height="40" as="geometry" />
        </mxCell>
        <mxCell id="VucIn9OToeMLbng5eBUD-46" value="" style="edgeStyle=entityRelationEdgeStyle;shape=connector;rounded=0;orthogonalLoop=1;jettySize=auto;html=1;strokeColor=default;strokeWidth=1;align=center;verticalAlign=middle;fontFamily=Helvetica;fontSize=11;fontColor=default;labelBackgroundColor=default;startFill=0;endArrow=none;" edge="1" parent="1" source="VucIn9OToeMLbng5eBUD-47" target="VucIn9OToeMLbng5eBUD-43">
          <mxGeometry relative="1" as="geometry" />
        </mxCell>
        <mxCell id="VucIn9OToeMLbng5eBUD-47" value="user_id" style="ellipse;whiteSpace=wrap;html=1;" vertex="1" parent="1">
          <mxGeometry x="3195" y="-830.5" width="60" height="40" as="geometry" />
        </mxCell>
        <mxCell id="VucIn9OToeMLbng5eBUD-48" value="" style="edgeStyle=entityRelationEdgeStyle;shape=connector;rounded=0;orthogonalLoop=1;jettySize=auto;html=1;strokeColor=default;strokeWidth=1;align=center;verticalAlign=middle;fontFamily=Helvetica;fontSize=11;fontColor=default;labelBackgroundColor=default;startFill=0;endArrow=none;" edge="1" parent="1" source="VucIn9OToeMLbng5eBUD-49" target="VucIn9OToeMLbng5eBUD-43">
          <mxGeometry relative="1" as="geometry" />
        </mxCell>
        <mxCell id="VucIn9OToeMLbng5eBUD-49" value="auction_id" style="ellipse;whiteSpace=wrap;html=1;" vertex="1" parent="1">
          <mxGeometry x="3195" y="-775.5" width="60" height="40" as="geometry" />
        </mxCell>
        <mxCell id="VucIn9OToeMLbng5eBUD-50" value="" style="edgeStyle=entityRelationEdgeStyle;shape=connector;rounded=0;orthogonalLoop=1;jettySize=auto;html=1;strokeColor=default;strokeWidth=1;align=center;verticalAlign=middle;fontFamily=Helvetica;fontSize=11;fontColor=default;labelBackgroundColor=default;startFill=0;endArrow=none;" edge="1" parent="1" source="VucIn9OToeMLbng5eBUD-51" target="VucIn9OToeMLbng5eBUD-43">
          <mxGeometry relative="1" as="geometry" />
        </mxCell>
        <mxCell id="VucIn9OToeMLbng5eBUD-51" value="bid_amount" style="ellipse;whiteSpace=wrap;html=1;" vertex="1" parent="1">
          <mxGeometry x="3195" y="-715.5" width="60" height="40" as="geometry" />
        </mxCell>
        <mxCell id="VucIn9OToeMLbng5eBUD-52" value="" style="edgeStyle=entityRelationEdgeStyle;shape=connector;rounded=0;orthogonalLoop=1;jettySize=auto;html=1;strokeColor=default;strokeWidth=1;align=center;verticalAlign=middle;fontFamily=Helvetica;fontSize=11;fontColor=default;labelBackgroundColor=default;startFill=0;endArrow=none;" edge="1" parent="1" source="VucIn9OToeMLbng5eBUD-53" target="VucIn9OToeMLbng5eBUD-43">
          <mxGeometry relative="1" as="geometry" />
        </mxCell>
        <mxCell id="VucIn9OToeMLbng5eBUD-53" value="created_at" style="ellipse;whiteSpace=wrap;html=1;" vertex="1" parent="1">
          <mxGeometry x="3195" y="-665.5" width="60" height="40" as="geometry" />
        </mxCell>
        <mxCell id="VucIn9OToeMLbng5eBUD-54" value="" style="edgeStyle=entityRelationEdgeStyle;shape=connector;rounded=0;orthogonalLoop=1;jettySize=auto;html=1;strokeColor=default;strokeWidth=1;align=center;verticalAlign=middle;fontFamily=Helvetica;fontSize=11;fontColor=default;labelBackgroundColor=default;startFill=0;endArrow=none;" edge="1" parent="1" source="VucIn9OToeMLbng5eBUD-55" target="VucIn9OToeMLbng5eBUD-43">
          <mxGeometry relative="1" as="geometry" />
        </mxCell>
        <mxCell id="VucIn9OToeMLbng5eBUD-55" value="updated_at" style="ellipse;whiteSpace=wrap;html=1;" vertex="1" parent="1">
          <mxGeometry x="3195" y="-615.5" width="60" height="40" as="geometry" />
        </mxCell>
      </root>
    </mxGraphModel>
  </diagram>
  <diagram id="nblqenA40p1XYrezL0uQ" name="class diagram">
    <mxGraphModel dx="994" dy="683" grid="1" gridSize="10" guides="1" tooltips="1" connect="1" arrows="1" fold="1" page="1" pageScale="1" pageWidth="827" pageHeight="1169" math="0" shadow="0">
      <root>
        <mxCell id="0" />
        <mxCell id="1" parent="0" />
        <mxCell id="PXsv71xSO26lS39ip67_-29" value="" style="group" vertex="1" connectable="0" parent="1">
          <mxGeometry x="150" y="310" width="504" height="490" as="geometry" />
        </mxCell>
        <mxCell id="PXsv71xSO26lS39ip67_-28" value="" style="edgeStyle=orthogonalEdgeStyle;rounded=0;orthogonalLoop=1;jettySize=auto;html=1;" edge="1" parent="PXsv71xSO26lS39ip67_-29" source="PXsv71xSO26lS39ip67_-12" target="PXsv71xSO26lS39ip67_-21">
          <mxGeometry relative="1" as="geometry" />
        </mxCell>
        <mxCell id="PXsv71xSO26lS39ip67_-12" value="auctions" style="swimlane;fontStyle=1;align=center;verticalAlign=top;childLayout=stackLayout;horizontal=1;startSize=26;horizontalStack=0;resizeParent=1;resizeParentMax=0;resizeLast=0;collapsible=1;marginBottom=0;whiteSpace=wrap;html=1;" vertex="1" parent="PXsv71xSO26lS39ip67_-29">
          <mxGeometry width="160" height="290" as="geometry" />
        </mxCell>
        <mxCell id="PXsv71xSO26lS39ip67_-13" value="id&lt;div&gt;user_id&lt;/div&gt;&lt;div&gt;title&lt;/div&gt;&lt;div&gt;description&lt;/div&gt;&lt;div&gt;image_path&lt;/div&gt;&lt;div&gt;starting_price&lt;/div&gt;&lt;div&gt;current_price&lt;/div&gt;&lt;div&gt;end_date&lt;/div&gt;&lt;div&gt;is_closed&lt;/div&gt;&lt;div&gt;winner_id&lt;/div&gt;&lt;div&gt;created_at&lt;/div&gt;&lt;div&gt;updated_at&lt;/div&gt;" style="text;strokeColor=none;fillColor=none;align=left;verticalAlign=top;spacingLeft=4;spacingRight=4;overflow=hidden;rotatable=0;points=[[0,0.5],[1,0.5]];portConstraint=eastwest;whiteSpace=wrap;html=1;" vertex="1" parent="PXsv71xSO26lS39ip67_-12">
          <mxGeometry y="26" width="160" height="184" as="geometry" />
        </mxCell>
        <mxCell id="PXsv71xSO26lS39ip67_-14" value="" style="line;strokeWidth=1;fillColor=none;align=left;verticalAlign=middle;spacingTop=-1;spacingLeft=3;spacingRight=3;rotatable=0;labelPosition=right;points=[];portConstraint=eastwest;strokeColor=inherit;" vertex="1" parent="PXsv71xSO26lS39ip67_-12">
          <mxGeometry y="210" width="160" height="8" as="geometry" />
        </mxCell>
        <mxCell id="PXsv71xSO26lS39ip67_-15" value="+ mengelola lelang&lt;div&gt;+ menampilkan&lt;br&gt;&lt;div&gt;+ menutup lelang&lt;/div&gt;&lt;div&gt;+ menambah pemenang&lt;/div&gt;&lt;/div&gt;" style="text;strokeColor=none;fillColor=none;align=left;verticalAlign=top;spacingLeft=4;spacingRight=4;overflow=hidden;rotatable=0;points=[[0,0.5],[1,0.5]];portConstraint=eastwest;whiteSpace=wrap;html=1;" vertex="1" parent="PXsv71xSO26lS39ip67_-12">
          <mxGeometry y="218" width="160" height="72" as="geometry" />
        </mxCell>
        <mxCell id="PXsv71xSO26lS39ip67_-25" value="" style="rounded=0;orthogonalLoop=1;jettySize=auto;html=1;" edge="1" parent="PXsv71xSO26lS39ip67_-29" source="PXsv71xSO26lS39ip67_-16" target="PXsv71xSO26lS39ip67_-13">
          <mxGeometry relative="1" as="geometry" />
        </mxCell>
        <mxCell id="PXsv71xSO26lS39ip67_-27" value="" style="edgeStyle=orthogonalEdgeStyle;rounded=0;orthogonalLoop=1;jettySize=auto;html=1;" edge="1" parent="PXsv71xSO26lS39ip67_-29" source="PXsv71xSO26lS39ip67_-16" target="PXsv71xSO26lS39ip67_-21">
          <mxGeometry relative="1" as="geometry" />
        </mxCell>
        <mxCell id="PXsv71xSO26lS39ip67_-16" value="users" style="swimlane;fontStyle=1;align=center;verticalAlign=top;childLayout=stackLayout;horizontal=1;startSize=26;horizontalStack=0;resizeParent=1;resizeParentMax=0;resizeLast=0;collapsible=1;marginBottom=0;whiteSpace=wrap;html=1;" vertex="1" parent="PXsv71xSO26lS39ip67_-29">
          <mxGeometry x="344" width="160" height="230" as="geometry" />
        </mxCell>
        <mxCell id="PXsv71xSO26lS39ip67_-17" value="id&lt;div&gt;&lt;span style=&quot;background-color: transparent; color: light-dark(rgb(0, 0, 0), rgb(255, 255, 255));&quot;&gt;name&lt;/span&gt;&lt;/div&gt;&lt;div&gt;email&lt;/div&gt;&lt;div&gt;email_verified_at&lt;/div&gt;&lt;div&gt;password&lt;/div&gt;&lt;div&gt;remember_token&lt;/div&gt;&lt;div&gt;created_at&lt;/div&gt;&lt;div&gt;updated_at&lt;/div&gt;" style="text;strokeColor=none;fillColor=none;align=left;verticalAlign=top;spacingLeft=4;spacingRight=4;overflow=hidden;rotatable=0;points=[[0,0.5],[1,0.5]];portConstraint=eastwest;whiteSpace=wrap;html=1;" vertex="1" parent="PXsv71xSO26lS39ip67_-16">
          <mxGeometry y="26" width="160" height="124" as="geometry" />
        </mxCell>
        <mxCell id="PXsv71xSO26lS39ip67_-18" value="" style="line;strokeWidth=1;fillColor=none;align=left;verticalAlign=middle;spacingTop=-1;spacingLeft=3;spacingRight=3;rotatable=0;labelPosition=right;points=[];portConstraint=eastwest;strokeColor=inherit;" vertex="1" parent="PXsv71xSO26lS39ip67_-16">
          <mxGeometry y="150" width="160" height="8" as="geometry" />
        </mxCell>
        <mxCell id="PXsv71xSO26lS39ip67_-19" value="+ login&lt;div&gt;+ logout&lt;/div&gt;&lt;div&gt;+ menambah lelang&lt;/div&gt;&lt;div&gt;+ menambah bid&lt;/div&gt;" style="text;strokeColor=none;fillColor=none;align=left;verticalAlign=top;spacingLeft=4;spacingRight=4;overflow=hidden;rotatable=0;points=[[0,0.5],[1,0.5]];portConstraint=eastwest;whiteSpace=wrap;html=1;" vertex="1" parent="PXsv71xSO26lS39ip67_-16">
          <mxGeometry y="158" width="160" height="72" as="geometry" />
        </mxCell>
        <mxCell id="PXsv71xSO26lS39ip67_-20" value="bids" style="swimlane;fontStyle=1;align=center;verticalAlign=top;childLayout=stackLayout;horizontal=1;startSize=26;horizontalStack=0;resizeParent=1;resizeParentMax=0;resizeLast=0;collapsible=1;marginBottom=0;whiteSpace=wrap;html=1;" vertex="1" parent="PXsv71xSO26lS39ip67_-29">
          <mxGeometry x="190" y="330" width="160" height="160" as="geometry" />
        </mxCell>
        <mxCell id="PXsv71xSO26lS39ip67_-21" value="id&lt;div&gt;&lt;span style=&quot;background-color: transparent; color: light-dark(rgb(0, 0, 0), rgb(255, 255, 255));&quot;&gt;user_id&lt;/span&gt;&lt;/div&gt;&lt;div&gt;&lt;span style=&quot;background-color: transparent; color: light-dark(rgb(0, 0, 0), rgb(255, 255, 255));&quot;&gt;auctions_id&lt;/span&gt;&lt;/div&gt;&lt;div&gt;bid_amount&lt;/div&gt;&lt;div&gt;created_at&lt;/div&gt;&lt;div&gt;updated_at&lt;/div&gt;" style="text;strokeColor=none;fillColor=none;align=left;verticalAlign=top;spacingLeft=4;spacingRight=4;overflow=hidden;rotatable=0;points=[[0,0.5],[1,0.5]];portConstraint=eastwest;whiteSpace=wrap;html=1;" vertex="1" parent="PXsv71xSO26lS39ip67_-20">
          <mxGeometry y="26" width="160" height="94" as="geometry" />
        </mxCell>
        <mxCell id="PXsv71xSO26lS39ip67_-22" value="" style="line;strokeWidth=1;fillColor=none;align=left;verticalAlign=middle;spacingTop=-1;spacingLeft=3;spacingRight=3;rotatable=0;labelPosition=right;points=[];portConstraint=eastwest;strokeColor=inherit;" vertex="1" parent="PXsv71xSO26lS39ip67_-20">
          <mxGeometry y="120" width="160" height="8" as="geometry" />
        </mxCell>
        <mxCell id="PXsv71xSO26lS39ip67_-23" value="+ menyimpan history bid" style="text;strokeColor=none;fillColor=none;align=left;verticalAlign=top;spacingLeft=4;spacingRight=4;overflow=hidden;rotatable=0;points=[[0,0.5],[1,0.5]];portConstraint=eastwest;whiteSpace=wrap;html=1;" vertex="1" parent="PXsv71xSO26lS39ip67_-20">
          <mxGeometry y="128" width="160" height="32" as="geometry" />
        </mxCell>
        <mxCell id="PXsv71xSO26lS39ip67_-26" value="" style="rounded=0;orthogonalLoop=1;jettySize=auto;html=1;exitX=1;exitY=0.5;exitDx=0;exitDy=0;entryX=0;entryY=0.735;entryDx=0;entryDy=0;entryPerimeter=0;" edge="1" parent="PXsv71xSO26lS39ip67_-29" source="PXsv71xSO26lS39ip67_-13" target="PXsv71xSO26lS39ip67_-17">
          <mxGeometry relative="1" as="geometry">
            <mxPoint x="354" y="126" as="sourcePoint" />
            <mxPoint x="170" y="127" as="targetPoint" />
          </mxGeometry>
        </mxCell>
      </root>
    </mxGraphModel>
  </diagram>
  <diagram id="VCXwjf9_vwNIpSeAF6Ip" name="use-case">
    <mxGraphModel dx="994" dy="683" grid="1" gridSize="10" guides="1" tooltips="1" connect="1" arrows="1" fold="1" page="1" pageScale="1" pageWidth="827" pageHeight="1169" math="0" shadow="0">
      <root>
        <mxCell id="0" />
        <mxCell id="1" parent="0" />
        <mxCell id="OW0tmJXRbBQxmc8sZcfK-10" value="" style="group" vertex="1" connectable="0" parent="1">
          <mxGeometry x="170" y="70" width="330" height="300" as="geometry" />
        </mxCell>
        <mxCell id="OW0tmJXRbBQxmc8sZcfK-1" value="user" style="shape=umlActor;verticalLabelPosition=bottom;verticalAlign=top;html=1;outlineConnect=0;" vertex="1" parent="OW0tmJXRbBQxmc8sZcfK-10">
          <mxGeometry y="130" width="30" height="60" as="geometry" />
        </mxCell>
        <mxCell id="OW0tmJXRbBQxmc8sZcfK-2" value="login" style="strokeWidth=2;html=1;shape=mxgraph.flowchart.start_1;whiteSpace=wrap;" vertex="1" parent="OW0tmJXRbBQxmc8sZcfK-10">
          <mxGeometry x="230" width="100" height="60" as="geometry" />
        </mxCell>
        <mxCell id="OW0tmJXRbBQxmc8sZcfK-3" value="menambah lelang" style="strokeWidth=2;html=1;shape=mxgraph.flowchart.start_1;whiteSpace=wrap;" vertex="1" parent="OW0tmJXRbBQxmc8sZcfK-10">
          <mxGeometry x="230" y="80" width="100" height="60" as="geometry" />
        </mxCell>
        <mxCell id="OW0tmJXRbBQxmc8sZcfK-4" value="megelola transaksi" style="strokeWidth=2;html=1;shape=mxgraph.flowchart.start_1;whiteSpace=wrap;" vertex="1" parent="OW0tmJXRbBQxmc8sZcfK-10">
          <mxGeometry x="230" y="160" width="100" height="60" as="geometry" />
        </mxCell>
        <mxCell id="OW0tmJXRbBQxmc8sZcfK-5" value="mengelola lelang" style="strokeWidth=2;html=1;shape=mxgraph.flowchart.start_1;whiteSpace=wrap;" vertex="1" parent="OW0tmJXRbBQxmc8sZcfK-10">
          <mxGeometry x="230" y="240" width="100" height="60" as="geometry" />
        </mxCell>
        <mxCell id="OW0tmJXRbBQxmc8sZcfK-6" style="rounded=0;orthogonalLoop=1;jettySize=auto;html=1;exitX=0.5;exitY=0.5;exitDx=0;exitDy=0;exitPerimeter=0;entryX=0;entryY=0.5;entryDx=0;entryDy=0;entryPerimeter=0;" edge="1" parent="OW0tmJXRbBQxmc8sZcfK-10" source="OW0tmJXRbBQxmc8sZcfK-1" target="OW0tmJXRbBQxmc8sZcfK-2">
          <mxGeometry relative="1" as="geometry" />
        </mxCell>
        <mxCell id="OW0tmJXRbBQxmc8sZcfK-7" style="rounded=0;orthogonalLoop=1;jettySize=auto;html=1;exitX=0.5;exitY=0.5;exitDx=0;exitDy=0;exitPerimeter=0;entryX=0;entryY=0.5;entryDx=0;entryDy=0;entryPerimeter=0;" edge="1" parent="OW0tmJXRbBQxmc8sZcfK-10" source="OW0tmJXRbBQxmc8sZcfK-1" target="OW0tmJXRbBQxmc8sZcfK-3">
          <mxGeometry relative="1" as="geometry" />
        </mxCell>
        <mxCell id="OW0tmJXRbBQxmc8sZcfK-8" style="rounded=0;orthogonalLoop=1;jettySize=auto;html=1;exitX=0.5;exitY=0.5;exitDx=0;exitDy=0;exitPerimeter=0;entryX=0;entryY=0.5;entryDx=0;entryDy=0;entryPerimeter=0;" edge="1" parent="OW0tmJXRbBQxmc8sZcfK-10" source="OW0tmJXRbBQxmc8sZcfK-1" target="OW0tmJXRbBQxmc8sZcfK-4">
          <mxGeometry relative="1" as="geometry" />
        </mxCell>
        <mxCell id="OW0tmJXRbBQxmc8sZcfK-9" style="rounded=0;orthogonalLoop=1;jettySize=auto;html=1;exitX=0.5;exitY=0.5;exitDx=0;exitDy=0;exitPerimeter=0;entryX=0;entryY=0.5;entryDx=0;entryDy=0;entryPerimeter=0;" edge="1" parent="OW0tmJXRbBQxmc8sZcfK-10" source="OW0tmJXRbBQxmc8sZcfK-1" target="OW0tmJXRbBQxmc8sZcfK-5">
          <mxGeometry relative="1" as="geometry" />
        </mxCell>
      </root>
    </mxGraphModel>
  </diagram>
  <diagram id="tcaLf1GcXbD6yq1Woki8" name="activity diagram">
    <mxGraphModel dx="1807" dy="1242" grid="1" gridSize="10" guides="1" tooltips="1" connect="1" arrows="1" fold="1" page="1" pageScale="1" pageWidth="827" pageHeight="1169" math="0" shadow="0">
      <root>
        <mxCell id="0" />
        <mxCell id="1" parent="0" />
        <mxCell id="Fs0RMLOu54bStaLR_xHL-78" value="" style="group" vertex="1" connectable="0" parent="1">
          <mxGeometry x="65" y="70" width="865" height="950" as="geometry" />
        </mxCell>
        <mxCell id="Fs0RMLOu54bStaLR_xHL-20" value="user" style="swimlane;whiteSpace=wrap;html=1;" vertex="1" parent="Fs0RMLOu54bStaLR_xHL-78">
          <mxGeometry width="265" height="950" as="geometry" />
        </mxCell>
        <mxCell id="Fs0RMLOu54bStaLR_xHL-24" value="" style="ellipse;html=1;shape=startState;fillColor=#000000;strokeColor=#ff0000;" vertex="1" parent="Fs0RMLOu54bStaLR_xHL-20">
          <mxGeometry x="30" y="30" width="30" height="30" as="geometry" />
        </mxCell>
        <mxCell id="Fs0RMLOu54bStaLR_xHL-25" value="" style="edgeStyle=orthogonalEdgeStyle;html=1;verticalAlign=bottom;endArrow=open;endSize=8;strokeColor=#ff0000;rounded=0;entryX=0.5;entryY=0;entryDx=0;entryDy=0;" edge="1" source="Fs0RMLOu54bStaLR_xHL-24" parent="Fs0RMLOu54bStaLR_xHL-20" target="Fs0RMLOu54bStaLR_xHL-29">
          <mxGeometry relative="1" as="geometry">
            <mxPoint x="100" y="130" as="targetPoint" />
          </mxGeometry>
        </mxCell>
        <mxCell id="Fs0RMLOu54bStaLR_xHL-27" value="users" style="whiteSpace=wrap;html=1;strokeWidth=2;" vertex="1" parent="Fs0RMLOu54bStaLR_xHL-20">
          <mxGeometry x="15" y="290" width="120" height="60" as="geometry" />
        </mxCell>
        <mxCell id="Fs0RMLOu54bStaLR_xHL-31" value="" style="edgeStyle=orthogonalEdgeStyle;rounded=0;orthogonalLoop=1;jettySize=auto;html=1;" edge="1" parent="Fs0RMLOu54bStaLR_xHL-20" source="Fs0RMLOu54bStaLR_xHL-29" target="Fs0RMLOu54bStaLR_xHL-27">
          <mxGeometry relative="1" as="geometry" />
        </mxCell>
        <mxCell id="Fs0RMLOu54bStaLR_xHL-33" value="ya" style="edgeLabel;html=1;align=center;verticalAlign=middle;resizable=0;points=[];" vertex="1" connectable="0" parent="Fs0RMLOu54bStaLR_xHL-31">
          <mxGeometry x="-0.4968" y="1" relative="1" as="geometry">
            <mxPoint as="offset" />
          </mxGeometry>
        </mxCell>
        <mxCell id="Fs0RMLOu54bStaLR_xHL-35" value="" style="edgeStyle=orthogonalEdgeStyle;rounded=0;orthogonalLoop=1;jettySize=auto;html=1;" edge="1" parent="Fs0RMLOu54bStaLR_xHL-20" source="Fs0RMLOu54bStaLR_xHL-29" target="Fs0RMLOu54bStaLR_xHL-34">
          <mxGeometry relative="1" as="geometry" />
        </mxCell>
        <mxCell id="Fs0RMLOu54bStaLR_xHL-36" value="tidak" style="edgeLabel;html=1;align=center;verticalAlign=middle;resizable=0;points=[];" vertex="1" connectable="0" parent="Fs0RMLOu54bStaLR_xHL-35">
          <mxGeometry x="-0.28" y="1" relative="1" as="geometry">
            <mxPoint as="offset" />
          </mxGeometry>
        </mxCell>
        <mxCell id="Fs0RMLOu54bStaLR_xHL-29" value="login?" style="rhombus;whiteSpace=wrap;html=1;strokeWidth=2;" vertex="1" parent="Fs0RMLOu54bStaLR_xHL-20">
          <mxGeometry x="5" y="110" width="80" height="80" as="geometry" />
        </mxCell>
        <mxCell id="Fs0RMLOu54bStaLR_xHL-34" value="guest" style="whiteSpace=wrap;html=1;strokeWidth=2;" vertex="1" parent="Fs0RMLOu54bStaLR_xHL-20">
          <mxGeometry x="145" y="120" width="120" height="60" as="geometry" />
        </mxCell>
        <mxCell id="Fs0RMLOu54bStaLR_xHL-48" value="" style="edgeStyle=orthogonalEdgeStyle;rounded=0;orthogonalLoop=1;jettySize=auto;html=1;" edge="1" parent="Fs0RMLOu54bStaLR_xHL-20" source="Fs0RMLOu54bStaLR_xHL-45" target="Fs0RMLOu54bStaLR_xHL-47">
          <mxGeometry relative="1" as="geometry" />
        </mxCell>
        <mxCell id="Fs0RMLOu54bStaLR_xHL-45" value="menambah bids" style="whiteSpace=wrap;html=1;" vertex="1" parent="Fs0RMLOu54bStaLR_xHL-20">
          <mxGeometry x="60" y="470" width="120" height="60" as="geometry" />
        </mxCell>
        <mxCell id="Fs0RMLOu54bStaLR_xHL-49" style="edgeStyle=orthogonalEdgeStyle;rounded=0;orthogonalLoop=1;jettySize=auto;html=1;exitX=0;exitY=0.5;exitDx=0;exitDy=0;entryX=0.5;entryY=0;entryDx=0;entryDy=0;" edge="1" parent="Fs0RMLOu54bStaLR_xHL-20" source="Fs0RMLOu54bStaLR_xHL-47" target="Fs0RMLOu54bStaLR_xHL-45">
          <mxGeometry relative="1" as="geometry">
            <Array as="points">
              <mxPoint x="35" y="685" />
              <mxPoint x="35" y="450" />
              <mxPoint x="120" y="450" />
            </Array>
          </mxGeometry>
        </mxCell>
        <mxCell id="Fs0RMLOu54bStaLR_xHL-50" value="tidak" style="edgeLabel;html=1;align=center;verticalAlign=middle;resizable=0;points=[];" vertex="1" connectable="0" parent="Fs0RMLOu54bStaLR_xHL-49">
          <mxGeometry x="-0.304" y="5" relative="1" as="geometry">
            <mxPoint as="offset" />
          </mxGeometry>
        </mxCell>
        <mxCell id="Fs0RMLOu54bStaLR_xHL-47" value="bids lebih tinggi dari harga sebelumnya?" style="rhombus;whiteSpace=wrap;html=1;" vertex="1" parent="Fs0RMLOu54bStaLR_xHL-20">
          <mxGeometry x="55" y="610" width="130" height="150" as="geometry" />
        </mxCell>
        <mxCell id="Fs0RMLOu54bStaLR_xHL-69" style="edgeStyle=orthogonalEdgeStyle;rounded=0;orthogonalLoop=1;jettySize=auto;html=1;exitX=0.5;exitY=1;exitDx=0;exitDy=0;entryX=0.5;entryY=0;entryDx=0;entryDy=0;" edge="1" parent="Fs0RMLOu54bStaLR_xHL-20" source="Fs0RMLOu54bStaLR_xHL-64" target="Fs0RMLOu54bStaLR_xHL-66">
          <mxGeometry relative="1" as="geometry" />
        </mxCell>
        <mxCell id="Fs0RMLOu54bStaLR_xHL-64" value="user dinyatakan sebagai pemenang" style="whiteSpace=wrap;html=1;" vertex="1" parent="Fs0RMLOu54bStaLR_xHL-20">
          <mxGeometry x="60" y="800" width="120" height="60" as="geometry" />
        </mxCell>
        <mxCell id="Fs0RMLOu54bStaLR_xHL-66" value="" style="ellipse;html=1;shape=endState;fillColor=#000000;strokeColor=#ff0000;" vertex="1" parent="Fs0RMLOu54bStaLR_xHL-20">
          <mxGeometry x="105" y="900" width="30" height="30" as="geometry" />
        </mxCell>
        <mxCell id="Fs0RMLOu54bStaLR_xHL-21" value="auctions" style="swimlane;whiteSpace=wrap;html=1;startSize=23;" vertex="1" parent="Fs0RMLOu54bStaLR_xHL-78">
          <mxGeometry x="265" width="200" height="950" as="geometry" />
        </mxCell>
        <mxCell id="Fs0RMLOu54bStaLR_xHL-39" value="list lelang dengan tombol menambah bids" style="whiteSpace=wrap;html=1;" vertex="1" parent="Fs0RMLOu54bStaLR_xHL-21">
          <mxGeometry x="40" y="290" width="120" height="60" as="geometry" />
        </mxCell>
        <mxCell id="Fs0RMLOu54bStaLR_xHL-41" value="list lelang tanpa tombol menambah bids" style="whiteSpace=wrap;html=1;" vertex="1" parent="Fs0RMLOu54bStaLR_xHL-21">
          <mxGeometry x="50" y="120" width="120" height="60" as="geometry" />
        </mxCell>
        <mxCell id="Fs0RMLOu54bStaLR_xHL-59" value="menutup lelang, mencatat pemenang" style="whiteSpace=wrap;html=1;" vertex="1" parent="Fs0RMLOu54bStaLR_xHL-21">
          <mxGeometry x="50" y="800" width="120" height="60" as="geometry" />
        </mxCell>
        <mxCell id="Fs0RMLOu54bStaLR_xHL-22" value="bids" style="swimlane;whiteSpace=wrap;html=1;" vertex="1" parent="Fs0RMLOu54bStaLR_xHL-78">
          <mxGeometry x="465" width="200" height="950" as="geometry" />
        </mxCell>
        <mxCell id="Fs0RMLOu54bStaLR_xHL-53" value="mencatat bid" style="whiteSpace=wrap;html=1;" vertex="1" parent="Fs0RMLOu54bStaLR_xHL-22">
          <mxGeometry x="40" y="655" width="120" height="60" as="geometry" />
        </mxCell>
        <mxCell id="Fs0RMLOu54bStaLR_xHL-37" value="sistem" style="swimlane;whiteSpace=wrap;html=1;startSize=23;" vertex="1" parent="Fs0RMLOu54bStaLR_xHL-78">
          <mxGeometry x="665" width="200" height="950" as="geometry" />
        </mxCell>
        <mxCell id="Fs0RMLOu54bStaLR_xHL-38" value="menampilkan list auctions" style="whiteSpace=wrap;html=1;" vertex="1" parent="Fs0RMLOu54bStaLR_xHL-37">
          <mxGeometry x="50" y="190" width="120" height="60" as="geometry" />
        </mxCell>
        <mxCell id="Fs0RMLOu54bStaLR_xHL-54" value="mencatat pemenang dari user dengan nilai bids tertinggi" style="whiteSpace=wrap;html=1;" vertex="1" parent="Fs0RMLOu54bStaLR_xHL-37">
          <mxGeometry x="60" y="655" width="120" height="60" as="geometry" />
        </mxCell>
        <mxCell id="Fs0RMLOu54bStaLR_xHL-74" value="menampilkan history bids" style="whiteSpace=wrap;html=1;" vertex="1" parent="Fs0RMLOu54bStaLR_xHL-37">
          <mxGeometry x="50" y="350" width="120" height="60" as="geometry" />
        </mxCell>
        <mxCell id="Fs0RMLOu54bStaLR_xHL-40" style="edgeStyle=orthogonalEdgeStyle;rounded=0;orthogonalLoop=1;jettySize=auto;html=1;" edge="1" parent="Fs0RMLOu54bStaLR_xHL-78" source="Fs0RMLOu54bStaLR_xHL-27" target="Fs0RMLOu54bStaLR_xHL-39">
          <mxGeometry relative="1" as="geometry" />
        </mxCell>
        <mxCell id="Fs0RMLOu54bStaLR_xHL-42" style="edgeStyle=orthogonalEdgeStyle;rounded=0;orthogonalLoop=1;jettySize=auto;html=1;" edge="1" parent="Fs0RMLOu54bStaLR_xHL-78" source="Fs0RMLOu54bStaLR_xHL-34" target="Fs0RMLOu54bStaLR_xHL-41">
          <mxGeometry relative="1" as="geometry" />
        </mxCell>
        <mxCell id="Fs0RMLOu54bStaLR_xHL-46" value="" style="edgeStyle=orthogonalEdgeStyle;rounded=0;orthogonalLoop=1;jettySize=auto;html=1;" edge="1" parent="Fs0RMLOu54bStaLR_xHL-78" source="Fs0RMLOu54bStaLR_xHL-39" target="Fs0RMLOu54bStaLR_xHL-45">
          <mxGeometry relative="1" as="geometry">
            <Array as="points">
              <mxPoint x="365" y="500" />
            </Array>
          </mxGeometry>
        </mxCell>
        <mxCell id="Fs0RMLOu54bStaLR_xHL-51" style="edgeStyle=orthogonalEdgeStyle;rounded=0;orthogonalLoop=1;jettySize=auto;html=1;exitX=1;exitY=0.5;exitDx=0;exitDy=0;entryX=0;entryY=0.5;entryDx=0;entryDy=0;" edge="1" parent="Fs0RMLOu54bStaLR_xHL-78" source="Fs0RMLOu54bStaLR_xHL-47" target="Fs0RMLOu54bStaLR_xHL-53">
          <mxGeometry relative="1" as="geometry">
            <mxPoint x="525.0000000000002" y="685.4285714285716" as="targetPoint" />
          </mxGeometry>
        </mxCell>
        <mxCell id="Fs0RMLOu54bStaLR_xHL-52" value="ya" style="edgeLabel;html=1;align=center;verticalAlign=middle;resizable=0;points=[];" vertex="1" connectable="0" parent="Fs0RMLOu54bStaLR_xHL-51">
          <mxGeometry x="-0.7217" y="-2" relative="1" as="geometry">
            <mxPoint as="offset" />
          </mxGeometry>
        </mxCell>
        <mxCell id="Fs0RMLOu54bStaLR_xHL-57" style="edgeStyle=orthogonalEdgeStyle;rounded=0;orthogonalLoop=1;jettySize=auto;html=1;exitX=1;exitY=0.5;exitDx=0;exitDy=0;" edge="1" parent="Fs0RMLOu54bStaLR_xHL-78" source="Fs0RMLOu54bStaLR_xHL-53" target="Fs0RMLOu54bStaLR_xHL-54">
          <mxGeometry relative="1" as="geometry" />
        </mxCell>
        <mxCell id="Fs0RMLOu54bStaLR_xHL-60" style="edgeStyle=orthogonalEdgeStyle;rounded=0;orthogonalLoop=1;jettySize=auto;html=1;exitX=0.5;exitY=1;exitDx=0;exitDy=0;entryX=1;entryY=0.5;entryDx=0;entryDy=0;" edge="1" parent="Fs0RMLOu54bStaLR_xHL-78" source="Fs0RMLOu54bStaLR_xHL-54" target="Fs0RMLOu54bStaLR_xHL-59">
          <mxGeometry relative="1" as="geometry" />
        </mxCell>
        <mxCell id="Fs0RMLOu54bStaLR_xHL-61" style="edgeStyle=orthogonalEdgeStyle;rounded=0;orthogonalLoop=1;jettySize=auto;html=1;exitX=0.5;exitY=0;exitDx=0;exitDy=0;entryX=1;entryY=0.5;entryDx=0;entryDy=0;" edge="1" parent="Fs0RMLOu54bStaLR_xHL-78" source="Fs0RMLOu54bStaLR_xHL-38" target="Fs0RMLOu54bStaLR_xHL-41">
          <mxGeometry relative="1" as="geometry" />
        </mxCell>
        <mxCell id="Fs0RMLOu54bStaLR_xHL-62" style="edgeStyle=orthogonalEdgeStyle;rounded=0;orthogonalLoop=1;jettySize=auto;html=1;exitX=0.5;exitY=1;exitDx=0;exitDy=0;" edge="1" parent="Fs0RMLOu54bStaLR_xHL-78" source="Fs0RMLOu54bStaLR_xHL-38">
          <mxGeometry relative="1" as="geometry">
            <mxPoint x="425" y="310" as="targetPoint" />
            <Array as="points">
              <mxPoint x="775" y="310" />
              <mxPoint x="425" y="310" />
            </Array>
          </mxGeometry>
        </mxCell>
        <mxCell id="Fs0RMLOu54bStaLR_xHL-65" style="edgeStyle=orthogonalEdgeStyle;rounded=0;orthogonalLoop=1;jettySize=auto;html=1;exitX=0;exitY=0.5;exitDx=0;exitDy=0;entryX=1;entryY=0.5;entryDx=0;entryDy=0;" edge="1" parent="Fs0RMLOu54bStaLR_xHL-78" source="Fs0RMLOu54bStaLR_xHL-59" target="Fs0RMLOu54bStaLR_xHL-64">
          <mxGeometry relative="1" as="geometry" />
        </mxCell>
        <mxCell id="Fs0RMLOu54bStaLR_xHL-70" value="start" style="text;html=1;align=center;verticalAlign=middle;resizable=0;points=[];autosize=1;strokeColor=none;fillColor=none;" vertex="1" parent="Fs0RMLOu54bStaLR_xHL-78">
          <mxGeometry x="60" y="28" width="50" height="30" as="geometry" />
        </mxCell>
        <mxCell id="Fs0RMLOu54bStaLR_xHL-71" value="end" style="text;html=1;align=center;verticalAlign=middle;resizable=0;points=[];autosize=1;strokeColor=none;fillColor=none;" vertex="1" parent="Fs0RMLOu54bStaLR_xHL-78">
          <mxGeometry x="145" y="898" width="40" height="30" as="geometry" />
        </mxCell>
        <mxCell id="Fs0RMLOu54bStaLR_xHL-76" style="edgeStyle=orthogonalEdgeStyle;rounded=0;orthogonalLoop=1;jettySize=auto;html=1;exitX=0.25;exitY=0;exitDx=0;exitDy=0;entryX=1;entryY=0.75;entryDx=0;entryDy=0;" edge="1" parent="Fs0RMLOu54bStaLR_xHL-78" source="Fs0RMLOu54bStaLR_xHL-74" target="Fs0RMLOu54bStaLR_xHL-39">
          <mxGeometry relative="1" as="geometry">
            <Array as="points">
              <mxPoint x="745" y="335" />
            </Array>
          </mxGeometry>
        </mxCell>
        <mxCell id="Fs0RMLOu54bStaLR_xHL-77" style="edgeStyle=orthogonalEdgeStyle;rounded=0;orthogonalLoop=1;jettySize=auto;html=1;exitX=0.5;exitY=0;exitDx=0;exitDy=0;entryX=0.5;entryY=1;entryDx=0;entryDy=0;" edge="1" parent="Fs0RMLOu54bStaLR_xHL-78" source="Fs0RMLOu54bStaLR_xHL-74" target="Fs0RMLOu54bStaLR_xHL-41">
          <mxGeometry relative="1" as="geometry">
            <Array as="points">
              <mxPoint x="765" y="350" />
              <mxPoint x="765" y="265" />
              <mxPoint x="375" y="265" />
            </Array>
          </mxGeometry>
        </mxCell>
      </root>
    </mxGraphModel>
  </diagram>
</mxfile>
